<?xml version="1.0" ?><svg height="32px" version="1.1" viewBox="0 0 32 32" width="32px" xmlns="http://www.w3.org/2000/svg" xmlns:xlink="http://www.w3.org/1999/xlink"><title/><desc/><defs/><g fill="none" fill-rule="evenodd" id="Page-1" stroke="none" stroke-width="1"><g id="letter-D"><g id="Page-1" transform="translate(4.000000, 2.000000)"><path d="M6.1726,4.9884 L6.1726,23.9924 L10.4696,23.9924 C11.4126,23.9924 12.1506,23.9674 12.6856,23.9164 C13.2206,23.8654 13.7746,23.7374 14.3476,23.5344 C14.9206,23.3304 15.4166,23.0434 15.8366,22.6744 C17.7346,21.0704 18.6826,18.3074 18.6826,14.3854 C18.6826,11.6224 18.2656,9.5534 17.4316,8.1784 C16.5976,6.8024 15.5696,5.9274 14.3476,5.5514 C13.1246,5.1764 11.6476,4.9884 9.9166,4.9884 L6.1726,4.9884 Z M3.9766,0.5004 L11.3676,0.5004 C13.2906,0.5004 14.9396,0.6784 16.3146,1.0344 C17.6896,1.3914 18.9376,2.0594 20.0576,3.0404 C22.9736,5.5364 24.4316,9.3304 24.4316,14.4234 C24.4316,16.1044 24.2856,17.6384 23.9926,19.0264 C23.6996,20.4144 23.2476,21.6654 22.6366,22.7794 C22.0256,23.8934 21.2426,24.8904 20.2876,25.7684 C19.5356,26.4434 18.7146,26.9844 17.8236,27.3924 C16.9316,27.7994 15.9736,28.0864 14.9486,28.2514 C13.9236,28.4174 12.7686,28.5004 11.4826,28.5004 L4.0906,28.5004 C3.0596,28.5004 2.2826,28.3444 1.7606,28.0324 C1.2386,27.7204 0.8976,27.2804 0.7386,26.7144 C0.5796,26.1474 0.4996,25.4124 0.4996,24.5084 L0.4996,3.9764 C0.4996,2.7534 0.7736,1.8684 1.3216,1.3214 C1.8686,0.7734 2.7536,0.5004 3.9766,0.5004 L3.9766,0.5004 Z" fill="#F42F42" id="Fill-1"/><path d="M6.1726,4.9884 L6.1726,23.9924 L10.4696,23.9924 C11.4126,23.9924 12.1506,23.9674 12.6856,23.9164 C13.2206,23.8654 13.7746,23.7374 14.3476,23.5344 C14.9206,23.3304 15.4166,23.0434 15.8366,22.6744 C17.7346,21.0704 18.6826,18.3074 18.6826,14.3854 C18.6826,11.6224 18.2656,9.5534 17.4316,8.1784 C16.5976,6.8024 15.5696,5.9274 14.3476,5.5514 C13.1246,5.1764 11.6476,4.9884 9.9166,4.9884 L6.1726,4.9884 L6.1726,4.9884 Z M3.9766,0.5004 L11.3676,0.5004 C13.2906,0.5004 14.9396,0.6784 16.3146,1.0344 C17.6896,1.3914 18.9376,2.0594 20.0576,3.0404 C22.9736,5.5364 24.4316,9.3304 24.4316,14.4234 C24.4316,16.1044 24.2856,17.6384 23.9926,19.0264 C23.6996,20.4144 23.2476,21.6654 22.6366,22.7794 C22.0256,23.8934 21.2426,24.8904 20.2876,25.7684 C19.5356,26.4434 18.7146,26.9844 17.8236,27.3924 C16.9316,27.7994 15.9736,28.0864 14.9486,28.2514 C13.9236,28.4174 12.7686,28.5004 11.4826,28.5004 L4.0906,28.5004 C3.0596,28.5004 2.2826,28.3444 1.7606,28.0324 C1.2386,27.7204 0.8976,27.2804 0.7386,26.7144 C0.5796,26.1474 0.4996,25.4124 0.4996,24.5084 L0.4996,3.9764 C0.4996,2.7534 0.7736,1.8684 1.3216,1.3214 C1.8686,0.7734 2.7536,0.5004 3.9766,0.5004 L3.9766,0.5004 Z" id="Stroke-3" stroke="#330910"/><path d="M23.9177,14.0464 C23.8857,15.4444 23.7507,16.7504 23.5027,17.9224 C23.2217,19.2564 22.7827,20.4734 22.1987,21.5394 C21.6157,22.6014 20.8587,23.5644 19.9487,24.4004 C19.2437,25.0344 18.4567,25.5524 17.6157,25.9384 C16.7707,26.3244 15.8467,26.5994 14.8687,26.7584 C13.8737,26.9184 12.7337,27.0004 11.4827,27.0004 L4.0907,27.0004 C3.1567,27.0004 2.4587,26.8664 2.0167,26.6024 C1.6047,26.3564 1.3447,26.0214 1.2207,25.5794 C1.0747,25.0584 0.9997,24.3624 0.9997,23.5074 L0.9997,24.5074 C0.9997,25.3624 1.0747,26.0584 1.2207,26.5794 C1.3447,27.0214 1.6047,27.3564 2.0167,27.6024 C2.4587,27.8664 3.1567,28.0004 4.0907,28.0004 L11.4827,28.0004 C12.7337,28.0004 13.8737,27.9184 14.8687,27.7584 C15.8467,27.5994 16.7707,27.3244 17.6157,26.9384 C18.4567,26.5524 19.2437,26.0344 19.9487,25.4004 C20.8587,24.5644 21.6157,23.6014 22.1987,22.5394 C22.7827,21.4734 23.2217,20.2564 23.5027,18.9224 C23.7867,17.5764 23.9317,16.0614 23.9317,14.4234 C23.9317,14.2944 23.9197,14.1744 23.9177,14.0464" fill="#332E09" id="Fill-5" opacity="0.203766325"/><path d="M6.1726,2.25 L13.3416,2.25" id="Stroke-7" stroke="#FFFFFF" stroke-dasharray="1,2,6,2,3" stroke-linecap="round" stroke-linejoin="round"/></g></g></g></svg>